<svg width="0" height="0" class="hidden">
  <symbol xmlns="http://www.w3.org/2000/svg" viewBox="0 0 24 24" id="thumb_up_off_alt-24px">
    <path d="M0 0h24v24H0V0z" fill="none"></path>
    <path d="M13.11 5.72l-.57 2.89c-.12.59.04 1.2.42 1.66.38.46.94.73 1.54.73H20v1.08L17.43 18H9.34a.35.35 0 01-.34-.34V9.82l4.11-4.1M14 2L7.59 8.41C7.21 8.79 7 9.3 7 9.83v7.83C7 18.95 8.05 20 9.34 20h8.1c.71 0 1.36-.37 1.72-.97l2.67-6.15c.11-.25.17-.52.17-.8V11c0-1.1-.9-2-2-2h-5.5l.92-4.65c.05-.22.02-.46-.08-.66a4.8 4.8 0 00-.88-1.22L14 2zM4 9H2v11h2c.55 0 1-.45 1-1v-9c0-.55-.45-1-1-1z"></path>
  </symbol>
  <symbol xmlns="http://www.w3.org/2000/svg" viewBox="0 0 24 24" id="comment-24px">
    <path d="M0 0h24v24H0z" fill="none"></path>
    <path d="M21.99 4c0-1.1-.89-2-1.99-2H4c-1.1 0-2 .9-2 2v12c0 1.1.9 2 2 2h14l4 4-.01-18zM18 14H6v-2h12v2zm0-3H6V9h12v2zm0-3H6V6h12v2z"></path>
  </symbol>
  <symbol xmlns="http://www.w3.org/2000/svg" viewBox="0 0 24 24" id="person_add-24px">
    <path d="M0 0h24v24H0z" fill="none"></path>
    <path d="M15 12c2.21 0 4-1.79 4-4s-1.79-4-4-4-4 1.79-4 4 1.79 4 4 4zm-9-2V7H4v3H1v2h3v3h2v-3h3v-2H6zm9 4c-2.67 0-8 1.34-8 4v2h16v-2c0-2.66-5.33-4-8-4z"></path>
  </symbol>
</svg>